<svg height="2558" width="720" xmlns="http://www.w3.org/2000/svg">
<rect height="2558" fill="#555" width="720"></rect>
<text fill="#7f7" font-family="Courier New" font-size="12" xml:space="preserve">
<tspan x="10" y="26">26 megabytes installed</tspan>
<tspan x="10" y="42"></tspan>
<tspan x="10" y="58">node_modules</tspan>
<tspan x="10" y="74">└─┬ cmake-js@3.4.1 </tspan>
<tspan x="10" y="90">  ├── bluebird@2.11.0 </tspan>
<tspan x="10" y="106">  ├─┬ debug@2.6.4 </tspan>
<tspan x="10" y="122">  │ └── ms@0.7.3 </tspan>
<tspan x="10" y="138">  ├─┬ fs-extra@1.0.0 </tspan>
<tspan x="10" y="154">  │ ├── graceful-fs@4.1.11 </tspan>
<tspan x="10" y="170">  │ ├── jsonfile@2.4.0 </tspan>
<tspan x="10" y="186">  │ └── klaw@1.3.1 </tspan>
<tspan x="10" y="202">  ├── is-iojs@1.1.0 </tspan>
<tspan x="10" y="218">  ├── lodash@3.10.1 </tspan>
<tspan x="10" y="234">  ├─┬ memory-stream@0.0.3 </tspan>
<tspan x="10" y="250">  │ └─┬ readable-stream@1.0.34 </tspan>
<tspan x="10" y="266">  │   ├── core-util-is@1.0.2 </tspan>
<tspan x="10" y="282">  │   ├── isarray@0.0.1 </tspan>
<tspan x="10" y="298">  │   └── string_decoder@0.10.31 </tspan>
<tspan x="10" y="314">  ├─┬ npmconf@2.1.2 </tspan>
<tspan x="10" y="330">  │ ├─┬ config-chain@1.1.11 </tspan>
<tspan x="10" y="346">  │ │ └── proto-list@1.2.4 </tspan>
<tspan x="10" y="362">  │ ├── inherits@2.0.3 </tspan>
<tspan x="10" y="378">  │ ├── ini@1.3.4 </tspan>
<tspan x="10" y="394">  │ ├─┬ mkdirp@0.5.1 </tspan>
<tspan x="10" y="410">  │ │ └── minimist@0.0.8 </tspan>
<tspan x="10" y="426">  │ ├─┬ nopt@3.0.6 </tspan>
<tspan x="10" y="442">  │ │ └── abbrev@1.1.0 </tspan>
<tspan x="10" y="458">  │ ├─┬ once@1.3.3 </tspan>
<tspan x="10" y="474">  │ │ └── wrappy@1.0.2 </tspan>
<tspan x="10" y="490">  │ ├─┬ osenv@0.1.4 </tspan>
<tspan x="10" y="506">  │ │ ├── os-homedir@1.0.2 </tspan>
<tspan x="10" y="522">  │ │ └── os-tmpdir@1.0.2 </tspan>
<tspan x="10" y="538">  │ ├── semver@4.3.6 </tspan>
<tspan x="10" y="554">  │ └── uid-number@0.0.5 </tspan>
<tspan x="10" y="570">  ├─┬ npmlog@1.2.1 </tspan>
<tspan x="10" y="586">  │ ├── ansi@0.3.1 </tspan>
<tspan x="10" y="602">  │ ├─┬ are-we-there-yet@1.0.6 </tspan>
<tspan x="10" y="618">  │ │ ├── delegates@1.0.0 </tspan>
<tspan x="10" y="634">  │ │ └─┬ readable-stream@2.2.9 </tspan>
<tspan x="10" y="650">  │ │   ├── buffer-shims@1.0.0 </tspan>
<tspan x="10" y="666">  │ │   ├── isarray@1.0.0 </tspan>
<tspan x="10" y="682">  │ │   ├── process-nextick-args@1.0.7 </tspan>
<tspan x="10" y="698">  │ │   ├── string_decoder@1.0.0 </tspan>
<tspan x="10" y="714">  │ │   └── util-deprecate@1.0.2 </tspan>
<tspan x="10" y="730">  │ └─┬ gauge@1.2.7 </tspan>
<tspan x="10" y="746">  │   ├── has-unicode@2.0.1 </tspan>
<tspan x="10" y="762">  │   ├── lodash.pad@4.5.1 </tspan>
<tspan x="10" y="778">  │   ├── lodash.padend@4.6.1 </tspan>
<tspan x="10" y="794">  │   └── lodash.padstart@4.6.1 </tspan>
<tspan x="10" y="810">  ├─┬ request@2.81.0 </tspan>
<tspan x="10" y="826">  │ ├── aws-sign2@0.6.0 </tspan>
<tspan x="10" y="842">  │ ├── aws4@1.6.0 </tspan>
<tspan x="10" y="858">  │ ├── caseless@0.12.0 </tspan>
<tspan x="10" y="874">  │ ├─┬ combined-stream@1.0.5 </tspan>
<tspan x="10" y="890">  │ │ └── delayed-stream@1.0.0 </tspan>
<tspan x="10" y="906">  │ ├── extend@3.0.0 </tspan>
<tspan x="10" y="922">  │ ├── forever-agent@0.6.1 </tspan>
<tspan x="10" y="938">  │ ├─┬ form-data@2.1.4 </tspan>
<tspan x="10" y="954">  │ │ └── asynckit@0.4.0 </tspan>
<tspan x="10" y="970">  │ ├─┬ har-validator@4.2.1 </tspan>
<tspan x="10" y="986">  │ │ ├─┬ ajv@4.11.7 </tspan>
<tspan x="10" y="1002">  │ │ │ ├── co@4.6.0 </tspan>
<tspan x="10" y="1018">  │ │ │ └─┬ json-stable-stringify@1.0.1 </tspan>
<tspan x="10" y="1034">  │ │ │   └── jsonify@0.0.0 </tspan>
<tspan x="10" y="1050">  │ │ └── har-schema@1.0.5 </tspan>
<tspan x="10" y="1066">  │ ├─┬ hawk@3.1.3 </tspan>
<tspan x="10" y="1082">  │ │ ├── boom@2.10.1 </tspan>
<tspan x="10" y="1098">  │ │ ├── cryptiles@2.0.5 </tspan>
<tspan x="10" y="1114">  │ │ ├── hoek@2.16.3 </tspan>
<tspan x="10" y="1130">  │ │ └── sntp@1.0.9 </tspan>
<tspan x="10" y="1146">  │ ├─┬ http-signature@1.1.1 </tspan>
<tspan x="10" y="1162">  │ │ ├── assert-plus@0.2.0 </tspan>
<tspan x="10" y="1178">  │ │ ├─┬ jsprim@1.4.0 </tspan>
<tspan x="10" y="1194">  │ │ │ ├── assert-plus@1.0.0 </tspan>
<tspan x="10" y="1210">  │ │ │ ├── extsprintf@1.0.2 </tspan>
<tspan x="10" y="1226">  │ │ │ ├── json-schema@0.2.3 </tspan>
<tspan x="10" y="1242">  │ │ │ └── verror@1.3.6 </tspan>
<tspan x="10" y="1258">  │ │ └─┬ sshpk@1.13.0 </tspan>
<tspan x="10" y="1274">  │ │   ├── asn1@0.2.3 </tspan>
<tspan x="10" y="1290">  │ │   ├── assert-plus@1.0.0 </tspan>
<tspan x="10" y="1306">  │ │   ├── bcrypt-pbkdf@1.0.1 </tspan>
<tspan x="10" y="1322">  │ │   ├─┬ dashdash@1.14.1 </tspan>
<tspan x="10" y="1338">  │ │   │ └── assert-plus@1.0.0 </tspan>
<tspan x="10" y="1354">  │ │   ├── ecc-jsbn@0.1.1 </tspan>
<tspan x="10" y="1370">  │ │   ├─┬ getpass@0.1.6 </tspan>
<tspan x="10" y="1386">  │ │   │ └── assert-plus@1.0.0 </tspan>
<tspan x="10" y="1402">  │ │   ├── jodid25519@1.0.2 </tspan>
<tspan x="10" y="1418">  │ │   ├── jsbn@0.1.1 </tspan>
<tspan x="10" y="1434">  │ │   └── tweetnacl@0.14.5 </tspan>
<tspan x="10" y="1450">  │ ├── is-typedarray@1.0.0 </tspan>
<tspan x="10" y="1466">  │ ├── isstream@0.1.2 </tspan>
<tspan x="10" y="1482">  │ ├── json-stringify-safe@5.0.1 </tspan>
<tspan x="10" y="1498">  │ ├─┬ mime-types@2.1.15 </tspan>
<tspan x="10" y="1514">  │ │ └── mime-db@1.27.0 </tspan>
<tspan x="10" y="1530">  │ ├── oauth-sign@0.8.2 </tspan>
<tspan x="10" y="1546">  │ ├── performance-now@0.2.0 </tspan>
<tspan x="10" y="1562">  │ ├── qs@6.4.0 </tspan>
<tspan x="10" y="1578">  │ ├── safe-buffer@5.0.1 </tspan>
<tspan x="10" y="1594">  │ ├── stringstream@0.0.5 </tspan>
<tspan x="10" y="1610">  │ ├─┬ tough-cookie@2.3.2 </tspan>
<tspan x="10" y="1626">  │ │ └── punycode@1.4.1 </tspan>
<tspan x="10" y="1642">  │ ├── tunnel-agent@0.6.0 </tspan>
<tspan x="10" y="1658">  │ └── uuid@3.0.1 </tspan>
<tspan x="10" y="1674">  ├── semver@5.3.0 </tspan>
<tspan x="10" y="1690">  ├── splitargs@0.0.7 </tspan>
<tspan x="10" y="1706">  ├─┬ tar@1.0.3 </tspan>
<tspan x="10" y="1722">  │ ├── block-stream@0.0.9 </tspan>
<tspan x="10" y="1738">  │ └─┬ fstream@1.0.11 </tspan>
<tspan x="10" y="1754">  │   └─┬ rimraf@2.6.1 </tspan>
<tspan x="10" y="1770">  │     └─┬ glob@7.1.1 </tspan>
<tspan x="10" y="1786">  │       └── fs.realpath@1.0.0 </tspan>
<tspan x="10" y="1802">  ├─┬ traceur@0.0.111 </tspan>
<tspan x="10" y="1818">  │ ├─┬ commander@2.9.0 </tspan>
<tspan x="10" y="1834">  │ │ └── graceful-readlink@1.0.1 </tspan>
<tspan x="10" y="1850">  │ ├─┬ glob@5.0.15 </tspan>
<tspan x="10" y="1866">  │ │ ├── inflight@1.0.6 </tspan>
<tspan x="10" y="1882">  │ │ ├─┬ minimatch@3.0.3 </tspan>
<tspan x="10" y="1898">  │ │ │ └─┬ brace-expansion@1.1.7 </tspan>
<tspan x="10" y="1914">  │ │ │   ├── balanced-match@0.4.2 </tspan>
<tspan x="10" y="1930">  │ │ │   └── concat-map@0.0.1 </tspan>
<tspan x="10" y="1946">  │ │ └── path-is-absolute@1.0.1 </tspan>
<tspan x="10" y="1962">  │ ├── rsvp@3.5.0 </tspan>
<tspan x="10" y="1978">  │ ├── semver@4.3.6 </tspan>
<tspan x="10" y="1994">  │ └─┬ source-map-support@0.2.10 </tspan>
<tspan x="10" y="2010">  │   └─┬ source-map@0.1.32 </tspan>
<tspan x="10" y="2026">  │     └── amdefine@1.0.1 </tspan>
<tspan x="10" y="2042">  ├─┬ unzip@0.1.11 </tspan>
<tspan x="10" y="2058">  │ ├─┬ binary@0.3.0 </tspan>
<tspan x="10" y="2074">  │ │ ├── buffers@0.1.1 </tspan>
<tspan x="10" y="2090">  │ │ └─┬ chainsaw@0.1.0 </tspan>
<tspan x="10" y="2106">  │ │   └── traverse@0.3.9 </tspan>
<tspan x="10" y="2122">  │ ├─┬ fstream@0.1.31 </tspan>
<tspan x="10" y="2138">  │ │ └─┬ graceful-fs@3.0.11 </tspan>
<tspan x="10" y="2154">  │ │   └── natives@1.1.0 </tspan>
<tspan x="10" y="2170">  │ ├── match-stream@0.0.2 </tspan>
<tspan x="10" y="2186">  │ ├─┬ pullstream@0.4.1 </tspan>
<tspan x="10" y="2202">  │ │ ├── over@0.0.5 </tspan>
<tspan x="10" y="2218">  │ │ └── slice-stream@1.0.0 </tspan>
<tspan x="10" y="2234">  │ └── setimmediate@1.0.5 </tspan>
<tspan x="10" y="2250">  ├── url-join@0.0.1 </tspan>
<tspan x="10" y="2266">  ├─┬ which@1.2.14 </tspan>
<tspan x="10" y="2282">  │ └── isexe@2.0.0 </tspan>
<tspan x="10" y="2298">  └─┬ yargs@3.32.0 </tspan>
<tspan x="10" y="2314">    ├── camelcase@2.1.1 </tspan>
<tspan x="10" y="2330">    ├─┬ cliui@3.2.0 </tspan>
<tspan x="10" y="2346">    │ ├─┬ strip-ansi@3.0.1 </tspan>
<tspan x="10" y="2362">    │ │ └── ansi-regex@2.1.1 </tspan>
<tspan x="10" y="2378">    │ └── wrap-ansi@2.1.0 </tspan>
<tspan x="10" y="2394">    ├── decamelize@1.2.0 </tspan>
<tspan x="10" y="2410">    ├─┬ os-locale@1.4.0 </tspan>
<tspan x="10" y="2426">    │ └─┬ lcid@1.0.0 </tspan>
<tspan x="10" y="2442">    │   └── invert-kv@1.0.0 </tspan>
<tspan x="10" y="2458">    ├─┬ string-width@1.0.2 </tspan>
<tspan x="10" y="2474">    │ ├── code-point-at@1.1.0 </tspan>
<tspan x="10" y="2490">    │ └─┬ is-fullwidth-code-point@1.0.0 </tspan>
<tspan x="10" y="2506">    │   └── number-is-nan@1.0.1 </tspan>
<tspan x="10" y="2522">    ├── window-size@0.1.4 </tspan>
<tspan x="10" y="2538">    └── y18n@3.2.1</tspan>
</text>
</svg>
